<svg xmlns="http://www.w3.org/2000/svg" xmlns:xlink="http://www.w3.org/1999/xlink" version="1.1" x="0px" y="0px" viewBox="0 0 100 125" style="enable-background:new 0 0 100 100;" xml:space="preserve"><polyline points="50.6,48.6 41,50.5 39.2,53.6 41.7,60.7 39.1,74.3 45.5,91.6 41.6,93.6 42.3,97.8 46.5,97.8 45.9,94 50.4,92.5   46.7,74.3 49.4,63.2 50,63.5 47.3,74.4 51.1,92.9 46.7,94.4 47.4,99 61.1,99 60.7,92.1 64.7,78.4 68.8,68.3 67.1,52.8 65.3,26.6   62.5,14.9 60.1,6.3 61.6,3.7 59.5,1 56.1,1 53.7,3.4 44.8,5.1 42.3,8.1 36.3,8.9 36.3,13.4 44,17.1 45.7,23.4 40.7,30.7 39.9,39   33.7,46.9 31.2,54.5 33.5,56.6 38.4,53.9 40.7,50 50,48.1 56.7,37.1 57.5,37.1 50.6,48.6 "/><text x="0" y="115" fill="#000000" font-size="5px" font-weight="bold" font-family="'Helvetica Neue', Helvetica, Arial-Unicode, Arial, Sans-serif">Created by Nathan Newell Griffith</text><text x="0" y="120" fill="#000000" font-size="5px" font-weight="bold" font-family="'Helvetica Neue', Helvetica, Arial-Unicode, Arial, Sans-serif">from the Noun Project</text></svg>